<?xml version="1.0" standalone="no"?>
<!DOCTYPE svg PUBLIC "-//W3C//DTD SVG 20010904//EN"
 "http://www.w3.org/TR/2001/REC-SVG-20010904/DTD/svg10.dtd">
<svg version="1.0" xmlns="http://www.w3.org/2000/svg"
 width="614.000000pt" height="614.000000pt" viewBox="0 0 614.000000 614.000000"
 preserveAspectRatio="xMidYMid meet">
<metadata>
Created by potrace 1.11, written by Peter Selinger 2001-2013
</metadata>
<g transform="translate(0.000000,614.000000) scale(0.100000,-0.100000)"
fill="#000000" stroke="none">
<path d="M2918 5325 c-2 -2 -30 -6 -63 -9 -92 -10 -122 -15 -230 -43 -649
-162 -1159 -671 -1325 -1322 -11 -43 -22 -95 -25 -117 -4 -21 -8 -50 -11 -64
-14 -80 -18 -229 -18 -697 -1 -399 -4 -523 -13 -523 -13 0 -126 75 -193 129
-53 42 -141 129 -189 186 -99 118 -197 319 -217 445 -3 19 -8 38 -10 42 -17
27 -24 280 -12 393 14 126 74 348 115 428 17 33 9 46 -40 71 -18 9 -128 75
-245 146 l-213 128 -21 -41 c-71 -134 -147 -329 -162 -412 -2 -16 -7 -41 -11
-55 -30 -133 -39 -371 -19 -500 7 -41 15 -91 18 -110 3 -19 17 -73 31 -120 14
-47 27 -93 30 -104 11 -46 98 -223 153 -313 129 -208 291 -381 492 -524 98
-70 313 -179 420 -214 l85 -28 0 -644 c0 -637 0 -644 20 -648 11 -2 833 -3
1828 -3 l1807 1 0 647 0 648 83 27 c158 53 332 145 473 251 72 54 226 200 289
274 186 217 325 512 373 790 16 92 19 150 17 290 -2 96 -6 189 -10 205 -3 17
-13 63 -21 103 -21 104 -77 260 -136 380 -49 98 -52 102 -72 89 -12 -7 -128
-78 -258 -156 l-238 -142 14 -28 c41 -79 96 -272 112 -391 3 -25 7 -56 10 -70
6 -32 6 -247 0 -280 -3 -14 -7 -43 -11 -65 -20 -138 -112 -354 -200 -470 -91
-120 -251 -262 -387 -344 l-38 -23 -1 534 c0 293 -3 556 -5 583 -49 603 -404
1152 -936 1446 -139 77 -374 167 -485 185 -15 2 -48 9 -73 14 -90 20 -223 31
-350 29 -71 -1 -131 -3 -132 -4z"/>
</g>
</svg>
