<svg xmlns="http://www.w3.org/2000/svg" width="20" height="20">
  <path d="M10 1.778a30.662 30.662 0 014 .111 5.154 5.154 0 011.889.333 3.9 3.9 0 011.889 1.889A5.154 5.154 0 0118.111 6c0 1 .111 1.333.111 4a30.662 30.662 0 01-.111 4 5.154 5.154 0 01-.333 1.889 3.9 3.9 0 01-1.889 1.889 5.154 5.154 0 01-1.889.333c-1 0-1.333.111-4 .111a30.662 30.662 0 01-4-.111 5.154 5.154 0 01-1.889-.333 3.9 3.9 0 01-1.889-1.889A5.154 5.154 0 011.889 14c0-1-.111-1.333-.111-4a30.662 30.662 0 01.111-4 5.154 5.154 0 01.333-1.889A3.991 3.991 0 013 3a1.879 1.879 0 011.111-.778A5.154 5.154 0 016 1.889a30.662 30.662 0 014-.111M10 0a32.83 32.83 0 00-4.111.111 6.86 6.86 0 00-2.445.445 4.35 4.35 0 00-1.777 1.111A4.35 4.35 0 00.556 3.444a5.063 5.063 0 00-.445 2.445A32.83 32.83 0 000 10a32.83 32.83 0 00.111 4.111 6.86 6.86 0 00.444 2.444 4.35 4.35 0 001.111 1.778 4.35 4.35 0 001.778 1.111 6.86 6.86 0 002.444.444A32.83 32.83 0 0010 20a32.83 32.83 0 004.111-.111 6.86 6.86 0 002.444-.444 4.662 4.662 0 002.889-2.889 6.86 6.86 0 00.444-2.444C19.889 13 20 12.667 20 10a32.83 32.83 0 00-.111-4.111 6.86 6.86 0 00-.444-2.444 4.35 4.35 0 00-1.111-1.778A4.35 4.35 0 0016.556.556a6.86 6.86 0 00-2.445-.445A32.83 32.83 0 0010 0m0 4.889A5.029 5.029 0 004.889 10 5.111 5.111 0 1010 4.889m0 8.444A3.274 3.274 0 016.667 10 3.274 3.274 0 0110 6.667 3.274 3.274 0 0113.333 10 3.274 3.274 0 0110 13.333m5.333-9.889a1.222 1.222 0 101.222 1.222 1.233 1.233 0 00-1.222-1.222" fill="#fff" fill-rule="evenodd"/>
</svg>