<svg xmlns="http://www.w3.org/2000/svg" width="93.811" height="55.04">
  <defs>
    <style>
      .a{fill:#fff}
    </style>
  </defs>
  <path class="a" d="M9.244 1.671c4.585 0 7.69 2.974 7.69 7.557 0 4.556-3.268 7.528-8.016 7.528H5.427v6.254H-.001V1.671zm-3.816 11H7.78c2.307 0 3.667-1.2 3.667-3.431s-1.361-3.417-3.638-3.417H5.427zM16.87 14.952c0-5.265 3.238-8.43 8.237-8.43 5.028 0 8.237 3.151 8.237 8.43 0 5.384-3.165 8.445-8.237 8.445s-8.237-3.076-8.237-8.445m11.768.014a3.3 3.3 0 00-3.533-3.6 3.291 3.291 0 00-3.515 3.6 3.249 3.249 0 003.515 3.589 3.27 3.27 0 003.533-3.589M34.963 1.671h5.25v21.341h-5.25zM42.49 6.907h5.236v16.105H42.49zM42.505 2.545A2.56 2.56 0 0145.078 0a2.563 2.563 0 012.589 2.545 2.559 2.559 0 01-2.589 2.527 2.555 2.555 0 01-2.573-2.527M56.113 6.522c4.436 0 7.1 2.159 7.188 5.471h-4.792a2.144 2.144 0 00-2.4-1.937c-1.273 0-2.13.562-2.13 1.434 0 .7.473 1.138 2.011 1.45l2.839.562c3.431.664 4.911 2 4.911 4.407 0 3.342-3.018 5.487-7.44 5.487-4.79 0-7.452-2.16-7.734-5.4h5.088c.222 1.2 1.124 1.862 2.646 1.862 1.391 0 2.249-.531 2.249-1.375 0-.725-.518-1.109-1.983-1.4l-2.823-.562c-3.165-.62-4.792-2.277-4.792-4.732 0-3.224 2.75-5.265 7.158-5.265M64.54 1.671h5.132v8.268h.109a5.024 5.024 0 015.042-3.343c3.594 0 5.591 2.279 5.591 6.079V23.01h-5.237v-9.2c0-1.82-.9-2.942-2.631-2.942-1.762 0-2.751 1.256-2.751 3.06v9.082h-5.251zM8.666 27.636c6.449 0 10.235 3.743 10.235 10.545 0 6.818-3.8 10.8-10.235 10.8H0V27.636zM5.428 44.6h2.529c3.534 0 5.428-2.144 5.428-6.4 0-4.009-2-6.182-5.428-6.182H5.428zM35.678 43.89c-.5 3.328-3.459 5.471-7.675 5.471-5.132 0-8.193-3.151-8.193-8.356s3.091-8.519 8.016-8.519c4.85 0 7.941 3.181 7.941 8.1v1.48H24.898v.326a3.062 3.062 0 003.179 3.252 2.827 2.827 0 002.869-1.758zm-10.706-4.808h5.857a2.836 2.836 0 00-2.914-2.869 2.943 2.943 0 00-2.942 2.869M44.056 32.487c4.436 0 7.1 2.159 7.188 5.473h-4.788a2.145 2.145 0 00-2.4-1.939c-1.272 0-2.13.562-2.13 1.434 0 .7.473 1.14 2.011 1.45l2.839.562c3.433.666 4.911 2 4.911 4.406 0 3.344-3.018 5.487-7.438 5.487-4.792 0-7.454-2.16-7.736-5.4h5.088c.222 1.2 1.124 1.864 2.648 1.864 1.389 0 2.247-.533 2.247-1.377 0-.723-.517-1.109-1.981-1.4l-2.825-.56c-3.165-.622-4.792-2.279-4.792-4.734 0-3.223 2.751-5.265 7.158-5.265M52.935 32.873h5.237v16.1h-5.237zm.016-4.363a2.56 2.56 0 012.573-2.545 2.564 2.564 0 012.589 2.545 2.561 2.561 0 01-2.589 2.529 2.557 2.557 0 01-2.573-2.529M59.977 50.028h5.072c.252.932 1.347 1.581 2.841 1.581 2.011 0 3.061-1.079 3.061-2.676v-2.958h-.1a5 5 0 01-4.9 2.869c-3.846 0-6.4-2.928-6.4-7.971 0-5.146 2.44-8.237 6.479-8.237a5.032 5.032 0 014.85 3.091h.1v-2.855h5.207v15.923c0 3.844-3.4 6.24-8.416 6.24-4.585 0-7.5-2.084-7.794-5.012m10.988-9.111c0-2.573-1.168-4.184-3.032-4.184-1.879 0-3.018 1.6-3.018 4.184 0 2.6 1.124 4.053 3.018 4.053 1.877 0 3.032-1.45 3.032-4.053M78.031 32.873h5.1v3.032h.1a4.96 4.96 0 014.985-3.343c3.594 0 5.591 2.249 5.591 6.079v10.337h-5.235v-9.215c0-1.832-.872-2.927-2.589-2.927a2.72 2.72 0 00-2.706 3.032v9.109h-5.251zM86.641 23.381a3.255 3.255 0 01-3.251-3.251 3.256 3.256 0 013.251-3.252 3.254 3.254 0 013.251 3.252 3.254 3.254 0 01-3.251 3.251m0-5.921a2.673 2.673 0 00-2.673 2.674 2.673 2.673 0 002.669 2.669 2.673 2.673 0 002.671-2.669 2.674 2.674 0 00-2.671-2.671"/>
  <path class="a" d="M85.991 21.952h-.662v-3.7h1.469a1.128 1.128 0 011.28 1.151 1.077 1.077 0 01-.7 1.058l.807 1.492h-.753l-.729-1.392h-.716zm0-1.9h.746a.593.593 0 00.664-.634.606.606 0 00-.676-.63h-.734z"/>
</svg>
